<svg width="320" height="169" viewBox="0 0 320 169" fill="none" xmlns="http://www.w3.org/2000/svg">
<g filter="url(#filter0_f)">
<rect x="54.0857" y="54.0569" width="211.829" height="60" rx="10" fill="#F53838" fill-opacity="0.35"/>
</g>
<rect x="35" y="28.766" width="250" height="60" rx="10" fill="#F53838"/>
<path d="M118.276 64.426C116.729 64.426 115.519 64.0527 114.644 63.306C113.769 62.5487 113.305 61.4713 113.252 60.074C113.241 59.7753 113.236 59.29 113.236 58.618C113.236 57.946 113.241 57.4553 113.252 57.146C113.295 55.802 113.759 54.762 114.644 54.026C115.54 53.2793 116.751 52.906 118.276 52.906C119.3 52.906 120.191 53.0713 120.948 53.402C121.716 53.7327 122.297 54.1593 122.692 54.682C123.097 55.194 123.311 55.722 123.332 56.266C123.332 56.362 123.295 56.4473 123.22 56.522C123.156 56.586 123.076 56.618 122.98 56.618H120.5C120.393 56.618 120.308 56.602 120.244 56.57C120.191 56.5273 120.137 56.4687 120.084 56.394C119.956 56.0953 119.748 55.8393 119.46 55.626C119.183 55.4127 118.788 55.306 118.276 55.306C117.039 55.306 116.399 55.946 116.356 57.226C116.345 57.5247 116.34 57.9833 116.34 58.602C116.34 59.2207 116.345 59.6847 116.356 59.994C116.399 61.3487 117.049 62.026 118.308 62.026C118.927 62.026 119.417 61.8713 119.78 61.562C120.143 61.2527 120.324 60.7833 120.324 60.154V59.866H118.9C118.783 59.866 118.681 59.8287 118.596 59.754C118.521 59.6687 118.484 59.5673 118.484 59.45V58.202C118.484 58.0847 118.521 57.9887 118.596 57.914C118.681 57.8287 118.783 57.786 118.9 57.786H122.964C123.081 57.786 123.177 57.8287 123.252 57.914C123.337 57.9887 123.38 58.0847 123.38 58.202V60.058C123.38 60.9647 123.167 61.7487 122.74 62.41C122.324 63.0607 121.732 63.562 120.964 63.914C120.196 64.2553 119.3 64.426 118.276 64.426ZM128.879 64.426C127.577 64.426 126.553 64.0793 125.807 63.386C125.06 62.682 124.676 61.6633 124.655 60.33V59.834C124.697 58.5647 125.092 57.5727 125.839 56.858C126.585 56.1433 127.593 55.786 128.863 55.786C129.78 55.786 130.553 55.9727 131.183 56.346C131.823 56.7087 132.297 57.2153 132.607 57.866C132.927 58.506 133.087 59.2367 133.087 60.058V60.458C133.087 60.5753 133.044 60.6767 132.959 60.762C132.884 60.8367 132.788 60.874 132.671 60.874H127.599V60.97C127.609 61.45 127.721 61.8393 127.935 62.138C128.148 62.426 128.452 62.57 128.847 62.57C129.103 62.57 129.305 62.522 129.455 62.426C129.615 62.3193 129.764 62.186 129.903 62.026C129.999 61.9193 130.073 61.8553 130.127 61.834C130.191 61.802 130.287 61.786 130.415 61.786H132.51C132.606 61.786 132.687 61.818 132.751 61.882C132.825 61.9353 132.863 62.0047 132.863 62.09C132.863 62.3673 132.703 62.6927 132.383 63.066C132.073 63.4393 131.615 63.7593 131.007 64.026C130.409 64.2927 129.7 64.426 128.879 64.426ZM130.143 59.242V59.21C130.143 58.698 130.031 58.3033 129.807 58.026C129.583 57.738 129.268 57.594 128.863 57.594C128.457 57.594 128.143 57.738 127.919 58.026C127.705 58.3033 127.599 58.698 127.599 59.21V59.242H130.143ZM138.874 64.266C136.612 64.266 135.482 63.2047 135.482 61.082V58.122H134.218C134.111 58.122 134.015 58.0847 133.93 58.01C133.855 57.9247 133.818 57.8287 133.818 57.722V56.346C133.818 56.2287 133.855 56.1327 133.93 56.058C134.015 55.9833 134.111 55.946 134.218 55.946H135.482V53.306C135.482 53.1887 135.519 53.0927 135.594 53.018C135.679 52.9433 135.775 52.906 135.882 52.906H137.85C137.967 52.906 138.063 52.9433 138.138 53.018C138.212 53.0927 138.25 53.1887 138.25 53.306V55.946H140.25C140.367 55.946 140.463 55.9833 140.538 56.058C140.623 56.1327 140.666 56.2287 140.666 56.346V57.722C140.666 57.8393 140.623 57.9353 140.538 58.01C140.463 58.0847 140.367 58.122 140.25 58.122H138.25V60.842C138.25 61.2153 138.319 61.498 138.458 61.69C138.596 61.882 138.82 61.978 139.13 61.978H140.394C140.511 61.978 140.607 62.0207 140.682 62.106C140.756 62.1807 140.794 62.2767 140.794 62.394V63.866C140.794 63.9727 140.756 64.0687 140.682 64.154C140.607 64.2287 140.511 64.266 140.394 64.266H138.874ZM149.859 64.426C148.825 64.426 147.945 64.2767 147.219 63.978C146.494 63.6793 145.945 63.2847 145.571 62.794C145.198 62.3033 145.001 61.77 144.979 61.194C144.979 61.098 145.011 61.018 145.075 60.954C145.15 60.89 145.235 60.858 145.331 60.858H147.459C147.587 60.858 147.689 60.8793 147.763 60.922C147.849 60.9647 147.939 61.0393 148.035 61.146C148.174 61.402 148.387 61.6153 148.675 61.786C148.974 61.946 149.369 62.026 149.859 62.026C150.435 62.026 150.878 61.9407 151.187 61.77C151.497 61.5887 151.651 61.3433 151.651 61.034C151.651 60.81 151.571 60.6287 151.411 60.49C151.251 60.3407 150.995 60.2127 150.643 60.106C150.291 59.9887 149.785 59.8607 149.123 59.722C147.833 59.466 146.867 59.0767 146.227 58.554C145.587 58.0313 145.267 57.2847 145.267 56.314C145.267 55.6527 145.449 55.066 145.811 54.554C146.185 54.0313 146.707 53.626 147.379 53.338C148.062 53.05 148.851 52.906 149.747 52.906C150.686 52.906 151.497 53.0713 152.179 53.402C152.873 53.722 153.401 54.1273 153.763 54.618C154.137 55.098 154.334 55.5727 154.355 56.042C154.355 56.138 154.323 56.2233 154.259 56.298C154.195 56.362 154.115 56.394 154.019 56.394H151.779C151.545 56.394 151.363 56.298 151.235 56.106C151.171 55.882 151.006 55.6953 150.739 55.546C150.473 55.386 150.142 55.306 149.747 55.306C149.299 55.306 148.953 55.386 148.707 55.546C148.462 55.706 148.339 55.9407 148.339 56.25C148.339 56.5593 148.499 56.8047 148.819 56.986C149.139 57.1567 149.737 57.3327 150.611 57.514C151.614 57.6953 152.409 57.9247 152.995 58.202C153.593 58.4687 154.03 58.8207 154.307 59.258C154.595 59.6847 154.739 60.2287 154.739 60.89C154.739 61.6153 154.531 62.2447 154.115 62.778C153.699 63.3113 153.123 63.722 152.387 64.01C151.651 64.2873 150.809 64.426 149.859 64.426ZM160.468 64.266C158.206 64.266 157.076 63.2047 157.076 61.082V58.122H155.812C155.705 58.122 155.609 58.0847 155.524 58.01C155.449 57.9247 155.412 57.8287 155.412 57.722V56.346C155.412 56.2287 155.449 56.1327 155.524 56.058C155.609 55.9833 155.705 55.946 155.812 55.946H157.076V53.306C157.076 53.1887 157.113 53.0927 157.188 53.018C157.273 52.9433 157.369 52.906 157.476 52.906H159.444C159.561 52.906 159.657 52.9433 159.732 53.018C159.806 53.0927 159.844 53.1887 159.844 53.306V55.946H161.844C161.961 55.946 162.057 55.9833 162.132 56.058C162.217 56.1327 162.26 56.2287 162.26 56.346V57.722C162.26 57.8393 162.217 57.9353 162.132 58.01C162.057 58.0847 161.961 58.122 161.844 58.122H159.844V60.842C159.844 61.2153 159.913 61.498 160.052 61.69C160.19 61.882 160.414 61.978 160.724 61.978H161.988C162.105 61.978 162.201 62.0207 162.276 62.106C162.35 62.1807 162.388 62.2767 162.388 62.394V63.866C162.388 63.9727 162.35 64.0687 162.276 64.154C162.201 64.2287 162.105 64.266 161.988 64.266H160.468ZM166.19 64.426C165.624 64.426 165.107 64.3193 164.638 64.106C164.179 63.882 163.816 63.578 163.55 63.194C163.294 62.81 163.166 62.3887 163.166 61.93C163.166 61.2047 163.464 60.618 164.062 60.17C164.67 59.7113 165.502 59.3967 166.558 59.226L168.542 58.922V58.73C168.542 58.3353 168.462 58.0473 168.302 57.866C168.142 57.6847 167.87 57.594 167.486 57.594C167.272 57.594 167.091 57.6313 166.942 57.706C166.803 57.7807 166.643 57.8927 166.462 58.042C166.323 58.1593 166.2 58.2447 166.094 58.298C166.051 58.3727 165.998 58.41 165.934 58.41H164.078C163.971 58.41 163.88 58.378 163.806 58.314C163.742 58.2393 163.715 58.154 163.726 58.058C163.736 57.77 163.88 57.45 164.158 57.098C164.435 56.7353 164.856 56.426 165.422 56.17C165.987 55.914 166.686 55.786 167.518 55.786C168.84 55.786 169.822 56.0793 170.462 56.666C171.102 57.242 171.422 58.026 171.422 59.018V63.866C171.422 63.9727 171.384 64.0687 171.31 64.154C171.235 64.2287 171.139 64.266 171.022 64.266H169.054C168.947 64.266 168.851 64.2287 168.766 64.154C168.691 64.0687 168.654 63.9727 168.654 63.866V63.306C168.419 63.6367 168.094 63.9087 167.678 64.122C167.262 64.3247 166.766 64.426 166.19 64.426ZM166.99 62.538C167.459 62.538 167.838 62.3833 168.126 62.074C168.424 61.7647 168.574 61.3167 168.574 60.73V60.538L167.246 60.762C166.35 60.9327 165.902 61.2527 165.902 61.722C165.902 61.9673 166.003 62.1647 166.206 62.314C166.419 62.4633 166.68 62.538 166.99 62.538ZM173.562 64.266C173.455 64.266 173.359 64.2287 173.274 64.154C173.199 64.0687 173.162 63.9727 173.162 63.866V56.362C173.162 56.2447 173.199 56.1487 173.274 56.074C173.349 55.9887 173.445 55.946 173.562 55.946H175.514C175.631 55.946 175.727 55.9887 175.802 56.074C175.887 56.1487 175.93 56.2447 175.93 56.362V56.97C176.229 56.6393 176.575 56.3887 176.97 56.218C177.375 56.0367 177.823 55.946 178.314 55.946H179.034C179.151 55.946 179.247 55.9833 179.322 56.058C179.397 56.1327 179.434 56.2287 179.434 56.346V58.09C179.434 58.1967 179.397 58.2927 179.322 58.378C179.247 58.4527 179.151 58.49 179.034 58.49H177.418C176.991 58.49 176.661 58.6073 176.426 58.842C176.202 59.0767 176.09 59.4073 176.09 59.834V63.866C176.09 63.9833 176.047 64.0793 175.962 64.154C175.887 64.2287 175.791 64.266 175.674 64.266H173.562ZM184.905 64.266C182.644 64.266 181.513 63.2047 181.513 61.082V58.122H180.249C180.142 58.122 180.046 58.0847 179.961 58.01C179.886 57.9247 179.849 57.8287 179.849 57.722V56.346C179.849 56.2287 179.886 56.1327 179.961 56.058C180.046 55.9833 180.142 55.946 180.249 55.946H181.513V53.306C181.513 53.1887 181.55 53.0927 181.625 53.018C181.71 52.9433 181.806 52.906 181.913 52.906H183.881C183.998 52.906 184.094 52.9433 184.169 53.018C184.244 53.0927 184.281 53.1887 184.281 53.306V55.946H186.281C186.398 55.946 186.494 55.9833 186.569 56.058C186.654 56.1327 186.697 56.2287 186.697 56.346V57.722C186.697 57.8393 186.654 57.9353 186.569 58.01C186.494 58.0847 186.398 58.122 186.281 58.122H184.281V60.842C184.281 61.2153 184.35 61.498 184.489 61.69C184.628 61.882 184.852 61.978 185.161 61.978H186.425C186.542 61.978 186.638 62.0207 186.713 62.106C186.788 62.1807 186.825 62.2767 186.825 62.394V63.866C186.825 63.9727 186.788 64.0687 186.713 64.154C186.638 64.2287 186.542 64.266 186.425 64.266H184.905ZM192.019 64.426C190.718 64.426 189.694 64.0793 188.947 63.386C188.2 62.682 187.816 61.6633 187.795 60.33V59.834C187.838 58.5647 188.232 57.5727 188.979 56.858C189.726 56.1433 190.734 55.786 192.003 55.786C192.92 55.786 193.694 55.9727 194.323 56.346C194.963 56.7087 195.438 57.2153 195.747 57.866C196.067 58.506 196.227 59.2367 196.227 60.058V60.458C196.227 60.5753 196.184 60.6767 196.099 60.762C196.024 60.8367 195.928 60.874 195.811 60.874H190.739V60.97C190.75 61.45 190.862 61.8393 191.075 62.138C191.288 62.426 191.592 62.57 191.987 62.57C192.243 62.57 192.446 62.522 192.595 62.426C192.755 62.3193 192.904 62.186 193.043 62.026C193.139 61.9193 193.214 61.8553 193.267 61.834C193.331 61.802 193.427 61.786 193.555 61.786H195.651C195.747 61.786 195.827 61.818 195.891 61.882C195.966 61.9353 196.003 62.0047 196.003 62.09C196.003 62.3673 195.843 62.6927 195.523 63.066C195.214 63.4393 194.755 63.7593 194.147 64.026C193.55 64.2927 192.84 64.426 192.019 64.426ZM193.283 59.242V59.21C193.283 58.698 193.171 58.3033 192.947 58.026C192.723 57.738 192.408 57.594 192.003 57.594C191.598 57.594 191.283 57.738 191.059 58.026C190.846 58.3033 190.739 58.698 190.739 59.21V59.242H193.283ZM200.782 64.426C199.747 64.426 198.931 64.1007 198.334 63.45C197.747 62.7993 197.433 61.8713 197.39 60.666L197.374 60.106L197.39 59.53C197.433 58.3673 197.753 57.4553 198.35 56.794C198.947 56.122 199.758 55.786 200.782 55.786C201.742 55.786 202.515 56.0953 203.102 56.714V53.306C203.102 53.1887 203.139 53.0927 203.214 53.018C203.299 52.9433 203.395 52.906 203.502 52.906H205.566C205.683 52.906 205.779 52.9433 205.854 53.018C205.939 53.0927 205.982 53.1887 205.982 53.306V63.866C205.982 63.9833 205.939 64.0793 205.854 64.154C205.779 64.2287 205.683 64.266 205.566 64.266H203.662C203.555 64.266 203.459 64.2287 203.374 64.154C203.299 64.0687 203.262 63.9727 203.262 63.866V63.37C202.686 64.074 201.859 64.426 200.782 64.426ZM201.71 62.202C202.169 62.202 202.51 62.058 202.734 61.77C202.958 61.4713 203.081 61.098 203.102 60.65C203.123 60.3513 203.134 60.1487 203.134 60.042C203.134 59.9247 203.123 59.7273 203.102 59.45C203.081 59.034 202.953 58.6927 202.718 58.426C202.494 58.1487 202.158 58.01 201.71 58.01C201.23 58.01 200.883 58.154 200.67 58.442C200.467 58.7193 200.35 59.1087 200.318 59.61L200.302 60.106L200.318 60.602C200.35 61.1033 200.467 61.498 200.67 61.786C200.883 62.0633 201.23 62.202 201.71 62.202Z" fill="white"/>
<defs>
<filter id="filter0_f" x="0.0856934" y="0.0568848" width="319.829" height="168" filterUnits="userSpaceOnUse" color-interpolation-filters="sRGB">
<feFlood flood-opacity="0" result="BackgroundImageFix"/>
<feBlend mode="normal" in="SourceGraphic" in2="BackgroundImageFix" result="shape"/>
<feGaussianBlur stdDeviation="27" result="effect1_foregroundBlur"/>
</filter>
</defs>
</svg>
